<svg width="160" height="160" viewBox="0 0 160 160" fill="none" xmlns="http://www.w3.org/2000/svg">
<g filter="url(#filter0_d)">
<rect x="30" y="25" width="100" height="100" rx="25" fill="url(#paint0_linear)"/>
</g>
<path fill-rule="evenodd" clip-rule="evenodd" d="M64.4545 47H95.5455C97.4524 47 99 48.5434 99 50.4375V98.5625C99 100.46 97.4524 102 95.5455 102H64.4545C62.5511 102 61 100.46 61 98.5625V50.4375C61 48.5434 62.5511 47 64.4545 47ZM95.5109 91.6875H95.5455V53.875H64.4545V53.9094H64.42V91.7219H95.5109V91.6875ZM80.4323 99.486C81.9655 99.486 83.2084 98.2493 83.2084 96.7236C83.2084 95.198 81.9655 93.9612 80.4323 93.9612C78.8991 93.9612 77.6562 95.198 77.6562 96.7236C77.6562 98.2493 78.8991 99.486 80.4323 99.486Z" fill="white"/>
<path d="M76.5126 60.75H69.6035C68.65 60.75 67.8762 61.52 67.8762 62.4687V69.3437C67.8762 70.2925 68.65 71.0625 69.6035 71.0625H76.5126C77.466 71.0625 78.2399 70.2925 78.2399 69.3437V62.4687C78.2399 61.52 77.466 60.75 76.5126 60.75ZM74.7853 67.625H71.3308V64.1875H74.7853V67.625Z" fill="white"/>
<path d="M90.329 60.75H83.4199C82.4664 60.75 81.6926 61.52 81.6926 62.4687V69.3437C81.6926 70.2925 82.4664 71.0625 83.4199 71.0625H90.329C91.2824 71.0625 92.0563 70.2925 92.0563 69.3437V62.4687C92.0563 61.52 91.2824 60.75 90.329 60.75ZM88.6017 67.625H85.1472V64.1875H88.6017V67.625Z" fill="white"/>
<path d="M76.5126 74.4998H69.6035C68.65 74.4998 67.8762 75.2698 67.8762 76.2185V83.0935C67.8762 84.0422 68.65 84.8122 69.6035 84.8122H76.5126C77.466 84.8122 78.2399 84.0422 78.2399 83.0935V76.2185C78.2399 75.2698 77.466 74.4998 76.5126 74.4998ZM74.7853 81.3748H71.3308V77.9373H74.7853V81.3748Z" fill="white"/>
<path d="M85.1472 74.4998H81.6926V77.9373H85.1472V74.4998Z" fill="white"/>
<path d="M88.6035 77.9375V81.375H85.1489V84.8125H90.3307C91.2842 84.8125 92.058 84.0425 92.058 83.0938V77.9375H88.6035Z" fill="white"/>
<defs>
<filter id="filter0_d" x="0" y="0" width="160" height="160" filterUnits="userSpaceOnUse" color-interpolation-filters="sRGB">
<feFlood flood-opacity="0" result="BackgroundImageFix"/>
<feColorMatrix in="SourceAlpha" type="matrix" values="0 0 0 0 0 0 0 0 0 0 0 0 0 0 0 0 0 0 127 0"/>
<feOffset dy="5"/>
<feGaussianBlur stdDeviation="15"/>
<feColorMatrix type="matrix" values="0 0 0 0 0.52549 0 0 0 0 0.32549 0 0 0 0 1 0 0 0 0.25 0"/>
<feBlend mode="normal" in2="BackgroundImageFix" result="effect1_dropShadow"/>
<feBlend mode="normal" in="SourceGraphic" in2="effect1_dropShadow" result="shape"/>
</filter>
<linearGradient id="paint0_linear" x1="30" y1="25" x2="130" y2="125" gradientUnits="userSpaceOnUse">
<stop stop-color="#8653FF"/>
<stop offset="1" stop-color="#C84EFF"/>
</linearGradient>
</defs>
</svg>
